<svg width="639" height="639" viewBox="0 0 639 639" fill="none" xmlns="http://www.w3.org/2000/svg">
<path fill-rule="evenodd" clip-rule="evenodd" d="M44 0H126C138 0 149 5 157 13C165 21 170 32 170 44V126C170 138 165 149 157 157C149 165 138 170 126 170H44C32 170 21 165 13 157C5 149 0 138 0 126V44C0 32 5 21 13 13C21 5 32 0 44 0Z" fill="white"/>
<path fill-rule="evenodd" clip-rule="evenodd" d="M278 0H360C372 0 383 5 391 13C399 21 404 32 404 44V126C404 138 399 149 391 157C383 165 372 170 360 170H278C266 170 255 165 247 157C239 149 234 138 234 126V44C234 32 239 21 247 13C255 5 266 0 278 0Z" fill="white"/>
<path fill-rule="evenodd" clip-rule="evenodd" d="M513 0H595C607 0 618 5 626 13C634 21 639 32 639 44V126C639 138 634 149 626 157C618 165 607 170 595 170H513C501 170 490 165 482 157C474 149 469 138 469 126V44C469 32 474 21 482 13C490 5 501 0 513 0Z" fill="white"/>
<path fill-rule="evenodd" clip-rule="evenodd" d="M44 234H126C138 234 149 239 157 247C165 255 170 266 170 278V360C170 372 165 383 157 391C149 399 138 404 126 404H44C32 404 21 399 13 391C5 383 0 372 0 360V278C0 266 5 255 13 247C21 239 32 234 44 234Z" fill="white"/>
<path fill-rule="evenodd" clip-rule="evenodd" d="M278 234H360C372 234 383 239 391 247C399 255 404 266 404 278V360C404 372 399 383 391 391C383 399 372 404 360 404H278C266 404 255 399 247 391C239 383 234 372 234 360V278C234 266 239 255 247 247C255 239 266 234 278 234Z" fill="white"/>
<path fill-rule="evenodd" clip-rule="evenodd" d="M513 234H595C607 234 618 239 626 247C634 255 639 266 639 278V360C639 372 634 383 626 391C618 399 607 404 595 404H513C501 404 490 399 482 391C474 383 469 372 469 360V278C469 266 474 255 482 247C490 239 501 234 513 234Z" fill="white"/>
<path fill-rule="evenodd" clip-rule="evenodd" d="M44 469H126C138 469 149 474 157 482C165 490 170 501 170 513V595C170 607 165 618 157 626C149 634 138 639 126 639H44C32 639 21 634 13 626C5 618 0 607 0 595V513C0 501 5 490 13 482C21 474 32 469 44 469Z" fill="white"/>
<path fill-rule="evenodd" clip-rule="evenodd" d="M278 469H360C372 469 383 474 391 482C399 490 404 501 404 513V595C404 607 399 618 391 626C383 634 372 639 360 639H278C266 639 255 634 247 626C239 618 234 607 234 595V513C234 501 239 490 247 482C255 474 266 469 278 469Z" fill="white"/>
<path fill-rule="evenodd" clip-rule="evenodd" d="M513 469H595C607 469 618 474 626 482C634 490 639 501 639 513V595C639 607 634 618 626 626C618 634 607 639 595 639H513C501 639 490 634 482 626C474 618 469 607 469 595V513C469 501 474 490 482 482C490 474 501 469 513 469Z" fill="white"/>
</svg>
