<svg xmlns="http://www.w3.org/2000/svg" xmlns:xlink="http://www.w3.org/1999/xlink" viewBox="0 0 548.5 140.64"><defs><style>.cls-1{fill:#fff;}.cls-2{fill:url(#Degradado_sin_nombre_2);}</style><radialGradient id="Degradado_sin_nombre_2" cx="70.32" cy="70.32" r="70.32" gradientUnits="userSpaceOnUse"><stop offset="0" stop-color="#cce0f4"/><stop offset="0" stop-color="#c3d7f4"/><stop offset="0" stop-color="#acbdf6"/><stop offset="0" stop-color="#8694f8"/><stop offset="0" stop-color="#525afb"/><stop offset="0" stop-color="#1011fe"/><stop offset="0" stop-color="blue"/><stop offset="0.65" stop-color="blue"/><stop offset="0.76" stop-color="blue"/><stop offset="0.78" stop-color="#0000d6" stop-opacity="0.84"/><stop offset="0.83" stop-color="#000096" stop-opacity="0.59"/><stop offset="0.87" stop-color="#000060" stop-opacity="0.38"/><stop offset="0.91" stop-color="#000037" stop-opacity="0.21"/><stop offset="0.94" stop-color="#000019" stop-opacity="0.1"/><stop offset="0.97" stop-color="#000006" stop-opacity="0.03"/><stop offset="0.99" stop-opacity="0"/></radialGradient></defs><g id="Capa_2" data-name="Capa 2"><g id="Capa_1-2" data-name="Capa 1"><path class="cls-1" d="M213.15,103.71H191V39.85h21.47c13.43,0,19.82,7.13,19.82,16.08,0,8.41-5.3,13.06-11.42,14.8a16.07,16.07,0,0,1,12.88,15.89C233.79,96.22,226.58,103.71,213.15,103.71Zm-1.1-58.47H197.44V68.08h14.89c8.67,0,13.52-4.38,13.52-11.51C225.85,49.72,221.28,45.24,212.05,45.24Zm.37,28.14h-15V98.32h15.25c9.23,0,14.71-4.66,14.71-12.33S221.55,73.38,212.42,73.38Z"/><path class="cls-1" d="M245.58,36.11H252v67.6h-6.39Z"/><path class="cls-1" d="M309.71,103.71h-6.4V94.94c-3,6.3-9.59,9.59-17,9.59C275,104.53,266,97.59,266,83V53.83h6.3V82.24c0,11.05,6,16.72,15.17,16.72,9.32,0,15.8-5.85,15.8-18V53.83h6.4Z"/><path class="cls-1" d="M345.88,104.44c-14.16,0-24.48-9.87-24.48-25.67S331.54,53.1,345.88,53.1c14.62,0,23.57,10.41,23.57,23.11a44.52,44.52,0,0,1-.18,5H327.89c.54,11.69,8.67,17.81,18,17.81,8.5,0,14.25-4.48,16.08-11.15h6.76C366.44,97.31,358.4,104.44,345.88,104.44ZM327.89,76H363c.28-11.6-8.13-17.45-17.35-17.45C336.56,58.58,328.62,64.43,327.89,76Z"/><path class="cls-1" d="M427.19,53.1c8.95,0,16.44,4.93,19.64,11.51V36.11h6.39v67.6h-6.39V92.56c-2.93,6.58-9.87,11.88-19.74,11.88-13.7,0-23.84-10.14-23.84-25.76S413.39,53.1,427.19,53.1Zm1.09,5.57c-10.5,0-18.54,7.31-18.54,20s8,20.19,18.54,20.19c10.23,0,18.55-7.68,18.55-20.1S438.51,58.67,428.28,58.67Z"/><path class="cls-1" d="M489.67,104.44c-14.07,0-24.76-9.87-24.76-25.67s11-25.67,24.94-25.67,24.94,9.77,24.94,25.67S503.74,104.44,489.67,104.44Zm0-5.57c9.41,0,18.54-6.4,18.54-20.1s-8.95-20.1-18.45-20.1-18.36,6.4-18.36,20.1S480.17,98.87,489.67,98.87Z"/><path class="cls-1" d="M528.31,59.22h-6.94V53.83h6.94V41.31h6.49V53.83h13.7v5.39H534.8v31c0,6.12,2.1,8,7.85,8h5.85v5.48h-6.85c-8.68,0-13.34-3.57-13.34-13.52Z"/><circle class="cls-2" cx="70.32" cy="70.32" r="70.32"/></g></g></svg>